<svg width="60" height="61" viewBox="0 0 60 61" fill="none" xmlns="http://www.w3.org/2000/svg">
<g filter="url(#filter0_d_29_28)">
<path d="M0 12C0 5.37258 5.37258 0 12 0H48C54.6274 0 60 5.37258 60 12V48C60 54.6274 54.6274 60 48 60H12C5.37258 60 0 54.6274 0 48V12Z" fill="white"/>
<path d="M12 0.5H48C54.3513 0.5 59.5 5.64873 59.5 12V48C59.5 54.3513 54.3513 59.5 48 59.5H12C5.64873 59.5 0.5 54.3513 0.5 48V12C0.5 5.64873 5.64873 0.5 12 0.5Z" stroke="#E9EDE8"/>
<path opacity="0.4" d="M33.344 18.4917C33.402 18.9293 32.9842 19.2583 32.5462 19.2043C28.4569 18.7003 23.0402 21.6071 21.3521 25.3749C21.1688 25.7841 20.6602 25.9735 20.3154 25.6869C19.6395 25.1249 19.0588 24.4357 18.7025 23.6379C18.3365 22.8184 18.2205 21.8082 18.8466 20.9597C19.2896 20.3593 20.0063 19.981 20.9266 19.7872C20.3154 17.3123 21.0096 15.2276 22.6857 14.3415C24.3628 13.4548 26.4807 14.0556 28.1844 15.9551C28.8725 15.3014 29.5919 14.9194 30.3357 14.8886C31.391 14.8448 32.1527 15.5103 32.6145 16.2743C32.9959 16.905 33.2362 17.6795 33.344 18.4917Z" fill="#FE9F6B"/>
<path d="M26.1253 35.9951C25.7633 36.1866 25.3148 36.087 25.0741 35.7555C23.3646 33.4011 22.1549 31.2166 21.9084 29.9346C21.5318 27.9566 21.4346 24.6688 26.7725 21.844C32.1122 19.0192 34.7767 20.9504 36.198 22.3754C36.571 22.7498 36.9775 23.3377 37.3945 24.0864C37.6149 24.4822 37.4545 24.9767 37.0542 25.1885L33.0834 27.2895C32.4732 27.6125 32.2402 28.3688 32.563 28.979C32.886 29.5891 33.6424 29.8221 34.2525 29.4993L37.967 27.5338C38.4059 27.3018 38.9494 27.5018 39.1209 27.9675C39.7622 29.7083 40.3502 31.6728 40.792 33.6478C40.873 34.0098 40.6985 34.3795 40.3707 34.553L37.3752 36.1383C36.765 36.4613 36.5322 37.2176 36.8552 37.8278C37.178 38.438 37.9345 38.6708 38.5447 38.348L40.3114 37.413C40.8244 37.1413 41.4509 37.4648 41.5032 38.0428C41.8312 41.6695 41.3469 44.7293 39.3742 45.6638C36.5497 47.3216 31.6552 43.5166 27.7574 39.0998C27.4057 38.7013 27.5264 38.0823 27.9962 37.8338L30.7089 36.399C31.3192 36.0761 31.5522 35.3198 31.2294 34.7095C30.9067 34.0993 30.1504 33.8663 29.54 34.189L26.1253 35.9951Z" fill="#FE9F6B"/>
</g>
<defs>
<filter id="filter0_d_29_28" x="0" y="0" width="60" height="61" filterUnits="userSpaceOnUse" color-interpolation-filters="sRGB">
<feFlood flood-opacity="0" result="BackgroundImageFix"/>
<feColorMatrix in="SourceAlpha" type="matrix" values="0 0 0 0 0 0 0 0 0 0 0 0 0 0 0 0 0 0 127 0" result="hardAlpha"/>
<feOffset dy="1"/>
<feComposite in2="hardAlpha" operator="out"/>
<feColorMatrix type="matrix" values="0 0 0 0 0.913725 0 0 0 0 0.929412 0 0 0 0 0.909804 0 0 0 1 0"/>
<feBlend mode="normal" in2="BackgroundImageFix" result="effect1_dropShadow_29_28"/>
<feBlend mode="normal" in="SourceGraphic" in2="effect1_dropShadow_29_28" result="shape"/>
</filter>
</defs>
</svg>
