<svg width="60" height="61" viewBox="0 0 60 61" fill="none" xmlns="http://www.w3.org/2000/svg">
<g filter="url(#filter0_d_29_78)">
<path d="M0 12C0 5.37258 5.37258 0 12 0H48C54.6274 0 60 5.37258 60 12V48C60 54.6274 54.6274 60 48 60H12C5.37258 60 0 54.6274 0 48V12Z" fill="white" shape-rendering="crispEdges"/>
<path d="M12 0.5H48C54.3513 0.5 59.5 5.64873 59.5 12V48C59.5 54.3513 54.3513 59.5 48 59.5H12C5.64873 59.5 0.5 54.3513 0.5 48V12C0.5 5.64873 5.64873 0.5 12 0.5Z" stroke="#E9EDE8" shape-rendering="crispEdges"/>
<path fill-rule="evenodd" clip-rule="evenodd" d="M19.0027 36.1182H14.8344C14.1444 36.1182 13.5844 36.6782 13.5844 37.3682C13.5844 38.0582 14.1444 38.6182 14.8344 38.6182H19.0027C19.6927 38.6182 20.2527 38.0582 20.2527 37.3682C20.2527 36.6782 19.6927 36.1182 19.0027 36.1182Z" fill="#697DDB"/>
<path fill-rule="evenodd" clip-rule="evenodd" d="M19.6227 20.1855H14.8344C14.1444 20.1855 13.5844 20.7455 13.5844 21.4355C13.5844 22.1255 14.1444 22.6855 14.8344 22.6855H19.6227C20.3127 22.6855 20.8727 22.1255 20.8727 21.4355C20.8727 20.7455 20.3127 20.1855 19.6227 20.1855Z" fill="#697DDB"/>
<path fill-rule="evenodd" clip-rule="evenodd" d="M14.8344 30.6185H17.2144C17.9044 30.6185 18.4644 30.0585 18.4644 29.3685C18.4644 28.6785 17.9044 28.1185 17.2144 28.1185H14.8344C14.1444 28.1185 13.5844 28.6785 13.5844 29.3685C13.5844 30.0585 14.1444 30.6185 14.8344 30.6185Z" fill="#697DDB"/>
<path fill-rule="evenodd" clip-rule="evenodd" d="M46.0295 40.2171L43.4279 37.6221C42.9145 37.1104 42.0845 37.1104 41.5745 37.6254C41.0629 38.1371 41.0629 38.9688 41.5762 39.4804L44.1779 42.0738C44.4345 42.3288 44.7695 42.4571 45.1045 42.4571C45.4395 42.4571 45.7762 42.3288 46.0329 42.0721C46.5445 41.5588 46.5429 40.7288 46.0295 40.2171Z" fill="#697DDB"/>
<path opacity="0.4" fill-rule="evenodd" clip-rule="evenodd" d="M33.1 17.5424C27.0033 17.5424 22.0634 22.4857 22.0634 28.584C22.0634 34.6807 27.0033 39.624 33.1 39.624C39.1967 39.624 44.1383 34.6807 44.1383 28.584C44.1383 22.4857 39.1967 17.5424 33.1 17.5424Z" fill="#697DDB"/>
</g>
<defs>
<filter id="filter0_d_29_78" x="0" y="0" width="60" height="61" filterUnits="userSpaceOnUse" color-interpolation-filters="sRGB">
<feFlood flood-opacity="0" result="BackgroundImageFix"/>
<feColorMatrix in="SourceAlpha" type="matrix" values="0 0 0 0 0 0 0 0 0 0 0 0 0 0 0 0 0 0 127 0" result="hardAlpha"/>
<feOffset dy="1"/>
<feComposite in2="hardAlpha" operator="out"/>
<feColorMatrix type="matrix" values="0 0 0 0 0.913725 0 0 0 0 0.929412 0 0 0 0 0.909804 0 0 0 1 0"/>
<feBlend mode="normal" in2="BackgroundImageFix" result="effect1_dropShadow_29_78"/>
<feBlend mode="normal" in="SourceGraphic" in2="effect1_dropShadow_29_78" result="shape"/>
</filter>
</defs>
</svg>
