<svg width="60" height="61" viewBox="0 0 60 61" fill="none" xmlns="http://www.w3.org/2000/svg">
<g filter="url(#filter0_d_29_77)">
<path d="M0 12C0 5.37258 5.37258 0 12 0H48C54.6274 0 60 5.37258 60 12V48C60 54.6274 54.6274 60 48 60H12C5.37258 60 0 54.6274 0 48V12Z" fill="white" shape-rendering="crispEdges"/>
<path d="M12 0.5H48C54.3513 0.5 59.5 5.64873 59.5 12V48C59.5 54.3513 54.3513 59.5 48 59.5H12C5.64873 59.5 0.5 54.3513 0.5 48V12C0.5 5.64873 5.64873 0.5 12 0.5Z" stroke="#E9EDE8" shape-rendering="crispEdges"/>
<path d="M32.6768 17.1626V25.9776L27.3218 35.0226H19.0269C18.0852 35.0226 17.2352 34.501 16.8069 33.6626C16.3802 32.8243 16.4569 31.8293 17.0119 31.0676L28.1702 15.6976C28.8168 14.8076 29.9085 14.4509 30.9552 14.7926C32.0018 15.1309 32.6768 16.0609 32.6768 17.1626Z" fill="#49AC9B"/>
<path opacity="0.4" d="M27.2928 43.8319V35.0169L32.6478 25.9719H40.9428C41.8845 25.9719 42.7345 26.4936 43.1628 27.3319C43.5895 28.1702 43.5128 29.1652 42.9578 29.9269L31.7995 45.2969C31.1528 46.1869 30.0611 46.5436 29.0145 46.2019C27.9678 45.8636 27.2928 44.9336 27.2928 43.8319Z" fill="#49AC9B"/>
</g>
<defs>
<filter id="filter0_d_29_77" x="0" y="0" width="60" height="61" filterUnits="userSpaceOnUse" color-interpolation-filters="sRGB">
<feFlood flood-opacity="0" result="BackgroundImageFix"/>
<feColorMatrix in="SourceAlpha" type="matrix" values="0 0 0 0 0 0 0 0 0 0 0 0 0 0 0 0 0 0 127 0" result="hardAlpha"/>
<feOffset dy="1"/>
<feComposite in2="hardAlpha" operator="out"/>
<feColorMatrix type="matrix" values="0 0 0 0 0.913725 0 0 0 0 0.929412 0 0 0 0 0.909804 0 0 0 1 0"/>
<feBlend mode="normal" in2="BackgroundImageFix" result="effect1_dropShadow_29_77"/>
<feBlend mode="normal" in="SourceGraphic" in2="effect1_dropShadow_29_77" result="shape"/>
</filter>
</defs>
</svg>
